<mxfile host="app.diagrams.net" modified="2023-12-13T04:28:28.115Z" agent="Mozilla/5.0 (Windows NT 10.0; Win64; x64; rv:120.0) Gecko/20100101 Firefox/120.0" etag="KjqUvXcNue3brg-VP18M" version="22.1.8" type="device">
  <diagram name="Page-1" id="TXdR40gtW8YHglbHES-P">
    <mxGraphModel dx="1730" dy="1608" grid="1" gridSize="10" guides="1" tooltips="1" connect="1" arrows="1" fold="1" page="1" pageScale="1" pageWidth="850" pageHeight="1100" math="0" shadow="0">
      <root>
        <mxCell id="0" />
        <mxCell id="1" parent="0" />
        <mxCell id="q58kOGL7PAQBBwTDV4AR-1" value="ShieldedHub App" style="swimlane;fontStyle=1;spacing=10;fontSize=25;startSize=50;align=center;" vertex="1" parent="1">
          <mxGeometry x="180" y="-50" width="450" height="540" as="geometry" />
        </mxCell>
        <mxCell id="q58kOGL7PAQBBwTDV4AR-114" value="" style="edgeStyle=orthogonalEdgeStyle;rounded=0;orthogonalLoop=1;jettySize=auto;html=1;" edge="1" parent="q58kOGL7PAQBBwTDV4AR-1" source="q58kOGL7PAQBBwTDV4AR-80" target="q58kOGL7PAQBBwTDV4AR-113">
          <mxGeometry relative="1" as="geometry" />
        </mxCell>
        <mxCell id="q58kOGL7PAQBBwTDV4AR-180" value="" style="edgeStyle=orthogonalEdgeStyle;rounded=0;orthogonalLoop=1;jettySize=auto;html=1;" edge="1" parent="q58kOGL7PAQBBwTDV4AR-1" source="q58kOGL7PAQBBwTDV4AR-80" target="q58kOGL7PAQBBwTDV4AR-179">
          <mxGeometry relative="1" as="geometry" />
        </mxCell>
        <mxCell id="q58kOGL7PAQBBwTDV4AR-80" value="&lt;font style=&quot;font-size: 18px;&quot;&gt;HOME PAGE/SCREEN&lt;/font&gt;" style="whiteSpace=wrap;html=1;" vertex="1" parent="q58kOGL7PAQBBwTDV4AR-1">
          <mxGeometry x="12" y="310" width="200" height="60" as="geometry" />
        </mxCell>
        <mxCell id="q58kOGL7PAQBBwTDV4AR-115" style="edgeStyle=orthogonalEdgeStyle;rounded=0;orthogonalLoop=1;jettySize=auto;html=1;" edge="1" parent="q58kOGL7PAQBBwTDV4AR-1" source="q58kOGL7PAQBBwTDV4AR-113">
          <mxGeometry relative="1" as="geometry">
            <mxPoint x="480" y="340" as="targetPoint" />
          </mxGeometry>
        </mxCell>
        <mxCell id="q58kOGL7PAQBBwTDV4AR-113" value="&lt;font style=&quot;font-size: 18px;&quot;&gt;RECYCLE BIN PAGE/SCREEN&lt;/font&gt;" style="whiteSpace=wrap;html=1;" vertex="1" parent="q58kOGL7PAQBBwTDV4AR-1">
          <mxGeometry x="280" y="310" width="148" height="60" as="geometry" />
        </mxCell>
        <mxCell id="q58kOGL7PAQBBwTDV4AR-188" style="edgeStyle=orthogonalEdgeStyle;rounded=0;orthogonalLoop=1;jettySize=auto;html=1;" edge="1" parent="q58kOGL7PAQBBwTDV4AR-1" source="q58kOGL7PAQBBwTDV4AR-179">
          <mxGeometry relative="1" as="geometry">
            <mxPoint x="20" y="-90" as="targetPoint" />
          </mxGeometry>
        </mxCell>
        <mxCell id="q58kOGL7PAQBBwTDV4AR-179" value="&lt;font style=&quot;font-size: 18px;&quot;&gt;LOGIN/SIGNUP SCREEN&lt;/font&gt;&lt;font style=&quot;font-size: 18px;&quot;&gt;/PAGE&lt;/font&gt;" style="whiteSpace=wrap;html=1;" vertex="1" parent="q58kOGL7PAQBBwTDV4AR-1">
          <mxGeometry x="125" y="90" width="200" height="60" as="geometry" />
        </mxCell>
        <mxCell id="q58kOGL7PAQBBwTDV4AR-9" value="CRUD OPERATIONS" style="swimlane;startSize=50;fontSize=25;" vertex="1" parent="1">
          <mxGeometry x="-120" y="-50" width="270" height="540" as="geometry" />
        </mxCell>
        <mxCell id="q58kOGL7PAQBBwTDV4AR-10" value="" style="rounded=0;whiteSpace=wrap;html=1;" vertex="1" parent="q58kOGL7PAQBBwTDV4AR-9">
          <mxGeometry x="60" y="190" width="170" height="80" as="geometry" />
        </mxCell>
        <mxCell id="q58kOGL7PAQBBwTDV4AR-21" value="" style="whiteSpace=wrap;html=1;" vertex="1" parent="q58kOGL7PAQBBwTDV4AR-9">
          <mxGeometry x="60" y="320" width="170" height="70" as="geometry" />
        </mxCell>
        <mxCell id="q58kOGL7PAQBBwTDV4AR-25" value="" style="whiteSpace=wrap;html=1;" vertex="1" parent="q58kOGL7PAQBBwTDV4AR-9">
          <mxGeometry x="60" y="450" width="170" height="75" as="geometry" />
        </mxCell>
        <mxCell id="q58kOGL7PAQBBwTDV4AR-33" value="" style="edgeStyle=orthogonalEdgeStyle;rounded=0;orthogonalLoop=1;jettySize=auto;html=1;" edge="1" parent="q58kOGL7PAQBBwTDV4AR-9" source="q58kOGL7PAQBBwTDV4AR-31" target="q58kOGL7PAQBBwTDV4AR-11">
          <mxGeometry relative="1" as="geometry" />
        </mxCell>
        <mxCell id="q58kOGL7PAQBBwTDV4AR-31" value="&lt;font style=&quot;font-size: 16px;&quot;&gt;A LIST OF ALL CREDENTIALS&lt;/font&gt;" style="whiteSpace=wrap;html=1;rounded=0;" vertex="1" parent="q58kOGL7PAQBBwTDV4AR-9">
          <mxGeometry x="60" y="80" width="170" height="60" as="geometry" />
        </mxCell>
        <mxCell id="q58kOGL7PAQBBwTDV4AR-34" value="" style="edgeStyle=orthogonalEdgeStyle;rounded=0;orthogonalLoop=1;jettySize=auto;html=1;" edge="1" parent="q58kOGL7PAQBBwTDV4AR-9" source="q58kOGL7PAQBBwTDV4AR-11" target="q58kOGL7PAQBBwTDV4AR-24">
          <mxGeometry relative="1" as="geometry" />
        </mxCell>
        <mxCell id="q58kOGL7PAQBBwTDV4AR-11" value="&lt;div style=&quot;font-size: 16px;&quot;&gt;&lt;font style=&quot;font-size: 16px;&quot;&gt;ADD A CREDENTIAL&lt;/font&gt;&lt;/div&gt;&lt;div style=&quot;font-size: 16px;&quot; align=&quot;left&quot;&gt;&lt;font style=&quot;font-size: 16px;&quot;&gt;- Name Of Site/App&lt;/font&gt;&lt;/div&gt;&lt;div style=&quot;font-size: 16px;&quot; align=&quot;left&quot;&gt;&lt;font style=&quot;font-size: 16px;&quot;&gt;- The Email&lt;/font&gt;&lt;/div&gt;&lt;div style=&quot;font-size: 16px;&quot; align=&quot;left&quot;&gt;&lt;font style=&quot;font-size: 16px;&quot;&gt;- The Password&lt;font style=&quot;font-size: 16px;&quot;&gt;&lt;br&gt;&lt;/font&gt;&lt;/font&gt;&lt;/div&gt;" style="text;html=1;strokeColor=none;fillColor=none;align=center;verticalAlign=middle;whiteSpace=wrap;rounded=0;" vertex="1" parent="q58kOGL7PAQBBwTDV4AR-9">
          <mxGeometry x="60" y="190" width="170" height="80" as="geometry" />
        </mxCell>
        <mxCell id="q58kOGL7PAQBBwTDV4AR-35" value="" style="edgeStyle=orthogonalEdgeStyle;rounded=0;orthogonalLoop=1;jettySize=auto;html=1;" edge="1" parent="q58kOGL7PAQBBwTDV4AR-9" source="q58kOGL7PAQBBwTDV4AR-24" target="q58kOGL7PAQBBwTDV4AR-27">
          <mxGeometry relative="1" as="geometry" />
        </mxCell>
        <mxCell id="q58kOGL7PAQBBwTDV4AR-24" value="&lt;font style=&quot;font-size: 16px;&quot;&gt;EDIT A CREDENTIAL&lt;/font&gt;" style="text;html=1;strokeColor=none;fillColor=none;align=center;verticalAlign=middle;whiteSpace=wrap;rounded=0;" vertex="1" parent="q58kOGL7PAQBBwTDV4AR-9">
          <mxGeometry x="60" y="320" width="170" height="70" as="geometry" />
        </mxCell>
        <mxCell id="q58kOGL7PAQBBwTDV4AR-27" value="&lt;div align=&quot;center&quot;&gt;&lt;font style=&quot;font-size: 16px;&quot;&gt;DELETE A CREDENTIAL TO RECYCLE BIN&lt;/font&gt;&lt;/div&gt;" style="text;html=1;strokeColor=none;fillColor=none;align=center;verticalAlign=middle;whiteSpace=wrap;rounded=0;" vertex="1" parent="q58kOGL7PAQBBwTDV4AR-9">
          <mxGeometry x="60" y="452.5" width="170" height="70" as="geometry" />
        </mxCell>
        <mxCell id="q58kOGL7PAQBBwTDV4AR-43" value="RECYCLE BIN" style="swimlane;fontStyle=1;spacing=10;fontSize=25;startSize=50;align=center;" vertex="1" parent="1">
          <mxGeometry x="660" y="-50" width="400" height="540" as="geometry" />
        </mxCell>
        <mxCell id="q58kOGL7PAQBBwTDV4AR-44" value="" style="rounded=0;whiteSpace=wrap;html=1;" vertex="1" parent="q58kOGL7PAQBBwTDV4AR-43">
          <mxGeometry x="115" y="80" width="120" height="60" as="geometry" />
        </mxCell>
        <mxCell id="q58kOGL7PAQBBwTDV4AR-63" value="" style="edgeStyle=orthogonalEdgeStyle;rounded=0;orthogonalLoop=1;jettySize=auto;html=1;" edge="1" parent="q58kOGL7PAQBBwTDV4AR-43" source="q58kOGL7PAQBBwTDV4AR-46" target="q58kOGL7PAQBBwTDV4AR-62">
          <mxGeometry relative="1" as="geometry" />
        </mxCell>
        <mxCell id="q58kOGL7PAQBBwTDV4AR-46" value="&lt;font style=&quot;font-size: 16px;&quot;&gt;A LIST OF ALL DELETED CREDENTIALS&lt;br&gt;&lt;/font&gt;" style="text;html=1;strokeColor=none;fillColor=none;align=center;verticalAlign=middle;whiteSpace=wrap;rounded=0;" vertex="1" parent="q58kOGL7PAQBBwTDV4AR-43">
          <mxGeometry x="120" y="80" width="110" height="60" as="geometry" />
        </mxCell>
        <mxCell id="q58kOGL7PAQBBwTDV4AR-67" value="" style="edgeStyle=orthogonalEdgeStyle;rounded=0;orthogonalLoop=1;jettySize=auto;html=1;" edge="1" parent="q58kOGL7PAQBBwTDV4AR-43" source="q58kOGL7PAQBBwTDV4AR-62" target="q58kOGL7PAQBBwTDV4AR-66">
          <mxGeometry relative="1" as="geometry" />
        </mxCell>
        <mxCell id="q58kOGL7PAQBBwTDV4AR-71" value="" style="edgeStyle=orthogonalEdgeStyle;rounded=0;orthogonalLoop=1;jettySize=auto;html=1;" edge="1" parent="q58kOGL7PAQBBwTDV4AR-43" source="q58kOGL7PAQBBwTDV4AR-62" target="q58kOGL7PAQBBwTDV4AR-70">
          <mxGeometry relative="1" as="geometry" />
        </mxCell>
        <mxCell id="q58kOGL7PAQBBwTDV4AR-62" value="&lt;font style=&quot;font-size: 14px;&quot;&gt;BUTTON ATTACHED TO EACH CREDENTIAL TO RECOVER&lt;/font&gt;" style="whiteSpace=wrap;html=1;" vertex="1" parent="q58kOGL7PAQBBwTDV4AR-43">
          <mxGeometry x="20" y="230" width="150" height="70" as="geometry" />
        </mxCell>
        <mxCell id="q58kOGL7PAQBBwTDV4AR-64" style="edgeStyle=orthogonalEdgeStyle;rounded=0;orthogonalLoop=1;jettySize=auto;html=1;exitX=0.5;exitY=1;exitDx=0;exitDy=0;" edge="1" parent="q58kOGL7PAQBBwTDV4AR-43">
          <mxGeometry relative="1" as="geometry">
            <mxPoint x="175" y="290" as="sourcePoint" />
            <mxPoint x="175" y="290" as="targetPoint" />
          </mxGeometry>
        </mxCell>
        <mxCell id="q58kOGL7PAQBBwTDV4AR-66" value="&lt;font style=&quot;font-size: 14px;&quot;&gt;BUTTON ATTACHED TO EACH CREDENTIAL TO DELETE&lt;/font&gt;" style="whiteSpace=wrap;html=1;" vertex="1" parent="q58kOGL7PAQBBwTDV4AR-43">
          <mxGeometry x="235" y="230" width="150" height="70" as="geometry" />
        </mxCell>
        <mxCell id="q58kOGL7PAQBBwTDV4AR-77" value="" style="edgeStyle=orthogonalEdgeStyle;rounded=0;orthogonalLoop=1;jettySize=auto;html=1;" edge="1" parent="q58kOGL7PAQBBwTDV4AR-43" source="q58kOGL7PAQBBwTDV4AR-70" target="q58kOGL7PAQBBwTDV4AR-76">
          <mxGeometry relative="1" as="geometry" />
        </mxCell>
        <mxCell id="q58kOGL7PAQBBwTDV4AR-70" value="&lt;font style=&quot;font-size: 14px;&quot;&gt;CENTRAL BUTTON TO RECOVER ALL THE CREDENTIALS&lt;br&gt;&lt;/font&gt;" style="whiteSpace=wrap;html=1;" vertex="1" parent="q58kOGL7PAQBBwTDV4AR-43">
          <mxGeometry x="20" y="380" width="150" height="70" as="geometry" />
        </mxCell>
        <mxCell id="q58kOGL7PAQBBwTDV4AR-76" value="&lt;font style=&quot;font-size: 14px;&quot;&gt;CENTRAL BUTTON TO DELETE ALL THE CREDENTIALS&lt;br&gt;&lt;/font&gt;" style="whiteSpace=wrap;html=1;" vertex="1" parent="q58kOGL7PAQBBwTDV4AR-43">
          <mxGeometry x="235" y="380" width="150" height="70" as="geometry" />
        </mxCell>
        <mxCell id="q58kOGL7PAQBBwTDV4AR-82" value="HOME PAGE/SCREEN" style="swimlane;fontStyle=1;spacing=10;fontSize=25;startSize=50;align=center;" vertex="1" parent="1">
          <mxGeometry x="230" y="570" width="350" height="540" as="geometry" />
        </mxCell>
        <mxCell id="q58kOGL7PAQBBwTDV4AR-184" style="edgeStyle=orthogonalEdgeStyle;rounded=0;orthogonalLoop=1;jettySize=auto;html=1;entryX=0.25;entryY=0;entryDx=0;entryDy=0;" edge="1" parent="q58kOGL7PAQBBwTDV4AR-82" source="q58kOGL7PAQBBwTDV4AR-39" target="q58kOGL7PAQBBwTDV4AR-7">
          <mxGeometry relative="1" as="geometry" />
        </mxCell>
        <mxCell id="q58kOGL7PAQBBwTDV4AR-39" value="&lt;font style=&quot;font-size: 18px;&quot;&gt;APP LOGO&lt;/font&gt;" style="whiteSpace=wrap;html=1;" vertex="1" parent="q58kOGL7PAQBBwTDV4AR-82">
          <mxGeometry x="10" y="100" width="80" height="60" as="geometry" />
        </mxCell>
        <mxCell id="q58kOGL7PAQBBwTDV4AR-99" value="" style="edgeStyle=orthogonalEdgeStyle;rounded=0;orthogonalLoop=1;jettySize=auto;html=1;" edge="1" parent="q58kOGL7PAQBBwTDV4AR-82" source="q58kOGL7PAQBBwTDV4AR-92" target="q58kOGL7PAQBBwTDV4AR-98">
          <mxGeometry relative="1" as="geometry" />
        </mxCell>
        <mxCell id="q58kOGL7PAQBBwTDV4AR-185" style="edgeStyle=orthogonalEdgeStyle;rounded=0;orthogonalLoop=1;jettySize=auto;html=1;entryX=0.5;entryY=0;entryDx=0;entryDy=0;" edge="1" parent="q58kOGL7PAQBBwTDV4AR-82" source="q58kOGL7PAQBBwTDV4AR-92" target="q58kOGL7PAQBBwTDV4AR-7">
          <mxGeometry relative="1" as="geometry" />
        </mxCell>
        <mxCell id="q58kOGL7PAQBBwTDV4AR-92" value="&lt;font style=&quot;font-size: 18px;&quot;&gt;PROFILE SCREEN/TAB&lt;/font&gt;" style="whiteSpace=wrap;html=1;" vertex="1" parent="q58kOGL7PAQBBwTDV4AR-82">
          <mxGeometry x="210" y="100" width="130" height="60" as="geometry" />
        </mxCell>
        <mxCell id="q58kOGL7PAQBBwTDV4AR-98" value="&lt;div align=&quot;center&quot;&gt;&lt;font style=&quot;font-size: 13.5px;&quot;&gt;NAME ICON REPRESENTATION&lt;/font&gt;&lt;/div&gt;" style="whiteSpace=wrap;html=1;align=center;" vertex="1" parent="q58kOGL7PAQBBwTDV4AR-82">
          <mxGeometry x="210" y="180" width="130" height="60" as="geometry" />
        </mxCell>
        <mxCell id="q58kOGL7PAQBBwTDV4AR-111" style="edgeStyle=orthogonalEdgeStyle;rounded=0;orthogonalLoop=1;jettySize=auto;html=1;" edge="1" parent="q58kOGL7PAQBBwTDV4AR-82" source="q58kOGL7PAQBBwTDV4AR-7">
          <mxGeometry relative="1" as="geometry">
            <mxPoint x="-210" y="-80" as="targetPoint" />
          </mxGeometry>
        </mxCell>
        <mxCell id="q58kOGL7PAQBBwTDV4AR-7" value="&lt;font style=&quot;font-size: 18px;&quot;&gt;CRUD OPERATIONS&lt;/font&gt;" style="rounded=0;whiteSpace=wrap;html=1;" vertex="1" parent="q58kOGL7PAQBBwTDV4AR-82">
          <mxGeometry x="115" y="330" width="120" height="60" as="geometry" />
        </mxCell>
        <mxCell id="q58kOGL7PAQBBwTDV4AR-94" value="PROFILE SCREEN/TAB" style="swimlane;fontStyle=1;spacing=10;fontSize=25;startSize=50;align=center;" vertex="1" parent="1">
          <mxGeometry x="660" y="570" width="350" height="540" as="geometry" />
        </mxCell>
        <mxCell id="q58kOGL7PAQBBwTDV4AR-181" style="edgeStyle=orthogonalEdgeStyle;rounded=0;orthogonalLoop=1;jettySize=auto;html=1;exitX=0.5;exitY=1;exitDx=0;exitDy=0;entryX=0.5;entryY=0;entryDx=0;entryDy=0;" edge="1" parent="q58kOGL7PAQBBwTDV4AR-94" source="q58kOGL7PAQBBwTDV4AR-96" target="q58kOGL7PAQBBwTDV4AR-106">
          <mxGeometry relative="1" as="geometry" />
        </mxCell>
        <mxCell id="q58kOGL7PAQBBwTDV4AR-96" value="&lt;font style=&quot;font-size: 16px;&quot;&gt;USERNAME OF ACTIVE USER&lt;/font&gt;" style="whiteSpace=wrap;html=1;" vertex="1" parent="q58kOGL7PAQBBwTDV4AR-94">
          <mxGeometry x="110" y="90" width="130" height="60" as="geometry" />
        </mxCell>
        <mxCell id="q58kOGL7PAQBBwTDV4AR-102" value="&lt;font style=&quot;font-size: 16px;&quot;&gt;LOG OUT BUTTON&lt;/font&gt;" style="whiteSpace=wrap;html=1;" vertex="1" parent="q58kOGL7PAQBBwTDV4AR-94">
          <mxGeometry x="115" y="330" width="120" height="60" as="geometry" />
        </mxCell>
        <mxCell id="q58kOGL7PAQBBwTDV4AR-182" style="edgeStyle=orthogonalEdgeStyle;rounded=0;orthogonalLoop=1;jettySize=auto;html=1;exitX=0.5;exitY=1;exitDx=0;exitDy=0;entryX=0.5;entryY=0;entryDx=0;entryDy=0;" edge="1" parent="q58kOGL7PAQBBwTDV4AR-94" source="q58kOGL7PAQBBwTDV4AR-106" target="q58kOGL7PAQBBwTDV4AR-102">
          <mxGeometry relative="1" as="geometry" />
        </mxCell>
        <mxCell id="q58kOGL7PAQBBwTDV4AR-106" value="&lt;font style=&quot;font-size: 16px;&quot;&gt;EMAIL OF ACTIVE USER&lt;/font&gt;" style="whiteSpace=wrap;html=1;" vertex="1" parent="q58kOGL7PAQBBwTDV4AR-94">
          <mxGeometry x="110" y="210" width="130" height="60" as="geometry" />
        </mxCell>
        <mxCell id="q58kOGL7PAQBBwTDV4AR-190" value="&lt;font style=&quot;font-size: 18px;&quot;&gt;LOGIN/SIGNUP SCREEN&lt;/font&gt;&lt;font style=&quot;font-size: 18px;&quot;&gt;/PAGE&lt;/font&gt;" style="whiteSpace=wrap;html=1;" vertex="1" parent="q58kOGL7PAQBBwTDV4AR-94">
          <mxGeometry x="100" y="450" width="200" height="60" as="geometry" />
        </mxCell>
        <mxCell id="q58kOGL7PAQBBwTDV4AR-112" style="edgeStyle=orthogonalEdgeStyle;rounded=0;orthogonalLoop=1;jettySize=auto;html=1;entryX=0.257;entryY=0;entryDx=0;entryDy=0;entryPerimeter=0;" edge="1" parent="1" source="q58kOGL7PAQBBwTDV4AR-80" target="q58kOGL7PAQBBwTDV4AR-82">
          <mxGeometry relative="1" as="geometry" />
        </mxCell>
        <mxCell id="q58kOGL7PAQBBwTDV4AR-116" value="LOGIN/SIGNUP SCREEN/PAGE" style="swimlane;fontStyle=1;spacing=10;fontSize=25;startSize=50;align=center;" vertex="1" parent="1">
          <mxGeometry x="145" y="-680" width="520" height="540" as="geometry" />
        </mxCell>
        <mxCell id="q58kOGL7PAQBBwTDV4AR-175" style="edgeStyle=orthogonalEdgeStyle;rounded=0;orthogonalLoop=1;jettySize=auto;html=1;" edge="1" parent="q58kOGL7PAQBBwTDV4AR-116" source="q58kOGL7PAQBBwTDV4AR-127" target="q58kOGL7PAQBBwTDV4AR-156">
          <mxGeometry relative="1" as="geometry" />
        </mxCell>
        <mxCell id="q58kOGL7PAQBBwTDV4AR-127" value="LOG IN" style="swimlane;startSize=40;fontSize=20;" vertex="1" parent="q58kOGL7PAQBBwTDV4AR-116">
          <mxGeometry x="12" y="70" width="260" height="180" as="geometry" />
        </mxCell>
        <mxCell id="q58kOGL7PAQBBwTDV4AR-131" value="&lt;font style=&quot;font-size: 13px;&quot;&gt;USERNAME AND PASSWORD&lt;/font&gt;" style="rounded=0;whiteSpace=wrap;html=1;" vertex="1" parent="q58kOGL7PAQBBwTDV4AR-127">
          <mxGeometry x="15" y="50" width="230" height="40" as="geometry" />
        </mxCell>
        <mxCell id="q58kOGL7PAQBBwTDV4AR-136" value="SUBMIT BTN" style="rounded=1;whiteSpace=wrap;html=1;" vertex="1" parent="q58kOGL7PAQBBwTDV4AR-127">
          <mxGeometry x="75" y="100" width="110" height="20" as="geometry" />
        </mxCell>
        <mxCell id="q58kOGL7PAQBBwTDV4AR-142" value="RESET PASSWORD" style="rounded=1;whiteSpace=wrap;html=1;" vertex="1" parent="q58kOGL7PAQBBwTDV4AR-127">
          <mxGeometry x="5" y="140" width="115" height="20" as="geometry" />
        </mxCell>
        <mxCell id="q58kOGL7PAQBBwTDV4AR-143" value="CREATE ACCOUNT" style="rounded=1;whiteSpace=wrap;html=1;" vertex="1" parent="q58kOGL7PAQBBwTDV4AR-127">
          <mxGeometry x="125" y="140" width="125" height="20" as="geometry" />
        </mxCell>
        <mxCell id="q58kOGL7PAQBBwTDV4AR-156" value="SIGN UP" style="swimlane;startSize=40;fontSize=20;" vertex="1" parent="q58kOGL7PAQBBwTDV4AR-116">
          <mxGeometry x="12" y="300" width="260" height="180" as="geometry" />
        </mxCell>
        <mxCell id="q58kOGL7PAQBBwTDV4AR-157" value="&lt;font style=&quot;font-size: 13px;&quot;&gt;USERNAME, EMAIL AND PASSWORD&lt;/font&gt;" style="rounded=0;whiteSpace=wrap;html=1;" vertex="1" parent="q58kOGL7PAQBBwTDV4AR-156">
          <mxGeometry x="15" y="50" width="230" height="40" as="geometry" />
        </mxCell>
        <mxCell id="q58kOGL7PAQBBwTDV4AR-158" value="SUBMIT BTN" style="rounded=1;whiteSpace=wrap;html=1;" vertex="1" parent="q58kOGL7PAQBBwTDV4AR-156">
          <mxGeometry x="75" y="100" width="110" height="20" as="geometry" />
        </mxCell>
        <mxCell id="q58kOGL7PAQBBwTDV4AR-159" value="RESET PASSWORD" style="rounded=1;whiteSpace=wrap;html=1;" vertex="1" parent="q58kOGL7PAQBBwTDV4AR-156">
          <mxGeometry x="5" y="140" width="115" height="20" as="geometry" />
        </mxCell>
        <mxCell id="q58kOGL7PAQBBwTDV4AR-160" value="LOG IN" style="rounded=1;whiteSpace=wrap;html=1;" vertex="1" parent="q58kOGL7PAQBBwTDV4AR-156">
          <mxGeometry x="125" y="140" width="125" height="20" as="geometry" />
        </mxCell>
        <mxCell id="q58kOGL7PAQBBwTDV4AR-161" value="CREATE PASSWORD" style="swimlane;startSize=40;fontSize=20;" vertex="1" parent="q58kOGL7PAQBBwTDV4AR-116">
          <mxGeometry x="290" y="295" width="217.5" height="195" as="geometry" />
        </mxCell>
        <mxCell id="q58kOGL7PAQBBwTDV4AR-162" value="ENTER EMAIL" style="rounded=0;whiteSpace=wrap;html=1;" vertex="1" parent="q58kOGL7PAQBBwTDV4AR-161">
          <mxGeometry x="35" y="45" width="145" height="25" as="geometry" />
        </mxCell>
        <mxCell id="q58kOGL7PAQBBwTDV4AR-163" value="SUBMIT BTN" style="rounded=1;whiteSpace=wrap;html=1;" vertex="1" parent="q58kOGL7PAQBBwTDV4AR-161">
          <mxGeometry x="52.5" y="125" width="110" height="20" as="geometry" />
        </mxCell>
        <mxCell id="q58kOGL7PAQBBwTDV4AR-169" value="CREATE NEW PASSWORD" style="rounded=0;whiteSpace=wrap;html=1;" vertex="1" parent="q58kOGL7PAQBBwTDV4AR-161">
          <mxGeometry x="35" y="80" width="145" height="30" as="geometry" />
        </mxCell>
        <mxCell id="q58kOGL7PAQBBwTDV4AR-178" value="LOGS YOU IN TO THE APP" style="rounded=0;whiteSpace=wrap;html=1;" vertex="1" parent="q58kOGL7PAQBBwTDV4AR-161">
          <mxGeometry x="35" y="155" width="145" height="30" as="geometry" />
        </mxCell>
        <mxCell id="q58kOGL7PAQBBwTDV4AR-176" style="edgeStyle=orthogonalEdgeStyle;rounded=0;orthogonalLoop=1;jettySize=auto;html=1;exitX=0.5;exitY=1;exitDx=0;exitDy=0;entryX=0.5;entryY=0;entryDx=0;entryDy=0;" edge="1" parent="q58kOGL7PAQBBwTDV4AR-116" source="q58kOGL7PAQBBwTDV4AR-170" target="q58kOGL7PAQBBwTDV4AR-161">
          <mxGeometry relative="1" as="geometry" />
        </mxCell>
        <mxCell id="q58kOGL7PAQBBwTDV4AR-170" value="RESET PASSWORD" style="swimlane;startSize=40;fontSize=20;" vertex="1" parent="q58kOGL7PAQBBwTDV4AR-116">
          <mxGeometry x="300" y="70" width="200" height="180" as="geometry" />
        </mxCell>
        <mxCell id="q58kOGL7PAQBBwTDV4AR-171" value="ENTER EMAIL" style="rounded=0;whiteSpace=wrap;html=1;" vertex="1" parent="q58kOGL7PAQBBwTDV4AR-170">
          <mxGeometry x="27.5" y="45" width="145" height="25" as="geometry" />
        </mxCell>
        <mxCell id="q58kOGL7PAQBBwTDV4AR-172" value="SUBMIT BTN" style="rounded=1;whiteSpace=wrap;html=1;" vertex="1" parent="q58kOGL7PAQBBwTDV4AR-170">
          <mxGeometry x="45" y="150" width="110" height="20" as="geometry" />
        </mxCell>
        <mxCell id="q58kOGL7PAQBBwTDV4AR-173" value="ENTER CODE SENT TO THE EMAIL, INITIALLY BLANK, BEFORE THE CODE SUCCESSFULLY SENDS" style="rounded=0;whiteSpace=wrap;html=1;" vertex="1" parent="q58kOGL7PAQBBwTDV4AR-170">
          <mxGeometry x="10" y="80" width="180" height="60" as="geometry" />
        </mxCell>
      </root>
    </mxGraphModel>
  </diagram>
</mxfile>
